# xmcd
#
# Track frame offsets:
#	150
#	19814
#	35821
#	65469
#	85010
#	103070
#	118072
#	152628
#	166662
#	181562
#	201319
#
# Disc length: 2911 seconds
#
# Revision: 2
# Processed by: cddbd v1.5.2PL0 Copyright (c) Steve Scherf et al.
# Submitted via: audiograbber 1.83.01
#
DISCID=870b5d0b
DTITLE=Khalif Wailin' Walter - She Put The Voodoo On Me
DYEAR=2012
DGENRE=Blues
TTITLE0=Let 'em in
TTITLE1=Ghost Train
TTITLE2=I'm your love doctor
TTITLE3=Big-bootyed woman
TTITLE4=She put the voodoo on me
TTITLE5=I get my own kinda groove
TTITLE6=My guitar and these blues
TTITLE7=I need a new job
TTITLE8=Still you stand
TTITLE9=Supercalifunkin' groovy
TTITLE10=Du heiﬂt Cowlahn... (Prayer for Michael Jackson)
EXTD=ISBN  8 87516 11034 4
EXTT0=
EXTT1=
EXTT2=
EXTT3=
EXTT4=
EXTT5=
EXTT6=
EXTT7=
EXTT8=
EXTT9=
EXTT10=
PLAYORDER=
